<?xml version="1.0" encoding="utf-8"?>
<!-- Generator: Adobe Illustrator 16.0.3, SVG Export Plug-In . SVG Version: 6.00 Build 0)  -->
<!DOCTYPE svg PUBLIC "-//W3C//DTD SVG 1.1//EN" "http://www.w3.org/Graphics/SVG/1.1/DTD/svg11.dtd">
<svg version="1.1" id="Layer_2" xmlns="http://www.w3.org/2000/svg" xmlns:xlink="http://www.w3.org/1999/xlink" x="0px" y="0px"
	 width="100%" height="100%" viewBox="0 0 443 318.5" enable-background="new 0 0 443 318.5" xml:space="preserve">
<g>
	
		<polyline fill="none" stroke="#666766" stroke-width="7" stroke-linecap="round" stroke-linejoin="round" stroke-miterlimit="10" points="
		439.5,146.002 439.25,21.5 439.25,21.5 439,3.5 173,3.5 173,21.5 3.5,21.5 3.5,315 439.5,315 439.5,202.502 	"/>
	
		<line fill="none" stroke="#666766" stroke-width="4" stroke-linecap="round" stroke-linejoin="round" stroke-miterlimit="10" x1="317.5" y1="118" x2="439.5" y2="118"/>
	
		<line fill="none" stroke="#666766" stroke-width="4" stroke-linecap="round" stroke-linejoin="round" stroke-miterlimit="10" x1="235.5" y1="117.25" x2="291.5" y2="117.25"/>
	
		<line fill="none" stroke="#666766" stroke-width="4" stroke-linecap="round" stroke-linejoin="round" stroke-miterlimit="10" x1="138" y1="117.25" x2="206.25" y2="117.25"/>
	
		<line fill="none" stroke="#666766" stroke-width="4" stroke-linecap="round" stroke-linejoin="round" stroke-miterlimit="10" x1="2" y1="117.25" x2="108" y2="117.25"/>
	
		<line fill="none" stroke="#666766" stroke-width="4" stroke-linecap="round" stroke-linejoin="round" stroke-miterlimit="10" x1="108.25" y1="239.75" x2="108.25" y2="315"/>
	
		<line fill="none" stroke="#666766" stroke-width="4" stroke-linecap="round" stroke-linejoin="round" stroke-miterlimit="10" x1="108.25" y1="118" x2="108.25" y2="213"/>
	
		<line fill="none" stroke="#666766" stroke-width="4" stroke-linecap="round" stroke-linejoin="round" stroke-miterlimit="10" x1="108.25" y1="21" x2="108.25" y2="93.25"/>
	
		<line fill="none" stroke="#666766" stroke-width="4" stroke-linecap="round" stroke-linejoin="round" stroke-miterlimit="10" x1="174" y1="239.25" x2="108.5" y2="239.25"/>
	
		<line fill="none" stroke="#666766" stroke-width="4" stroke-linecap="round" stroke-linejoin="round" stroke-miterlimit="10" x1="209" y1="239.25" x2="197.5" y2="239.25"/>
	
		<line fill="none" stroke="#666766" stroke-width="4" stroke-linecap="round" stroke-linejoin="round" stroke-miterlimit="10" x1="300" y1="239.25" x2="230.5" y2="239.25"/>
	
		<line fill="none" stroke="#666766" stroke-width="4" stroke-linecap="round" stroke-linejoin="round" stroke-miterlimit="10" x1="411" y1="238.5" x2="327" y2="238.5"/>
	
		<line fill="none" stroke="#666766" stroke-width="4" stroke-linecap="round" stroke-linejoin="round" stroke-miterlimit="10" x1="291.5" y1="3.5" x2="291.5" y2="116"/>
	
		<line fill="none" stroke="#666766" stroke-width="4" stroke-linecap="round" stroke-linejoin="round" stroke-miterlimit="10" x1="206.5" y1="2.5" x2="206.5" y2="116.5"/>
	
		<line fill="none" stroke="#666766" stroke-width="4" stroke-linecap="round" stroke-linejoin="round" stroke-miterlimit="10" x1="137.75" y1="113.25" x2="137.75" y2="117.25"/>
	
		<line fill="none" stroke="#666766" stroke-width="4" stroke-linecap="round" stroke-linejoin="round" stroke-miterlimit="10" x1="137.75" y1="22.5" x2="137.75" y2="92.75"/>
	
		<line fill="none" stroke="#666766" stroke-width="4" stroke-linecap="round" stroke-linejoin="round" stroke-miterlimit="10" x1="202.5" y1="239.5" x2="202.5" y2="315"/>
	
		<line fill="none" stroke="#666766" stroke-width="4" stroke-linecap="round" stroke-linejoin="round" stroke-miterlimit="10" x1="300" y1="239" x2="300" y2="315"/>
	
		<line fill="none" stroke="#666766" stroke-width="4" stroke-linecap="round" stroke-linejoin="round" stroke-miterlimit="10" x1="4" y1="258.5" x2="78" y2="258.5"/>
	
		<polyline fill="none" stroke="#666766" stroke-width="4" stroke-linecap="round" stroke-linejoin="round" stroke-miterlimit="10" points="
		108,213 83,213 83,229 	"/>
	
		<polyline fill="none" stroke="#666766" stroke-width="2" stroke-linecap="round" stroke-linejoin="round" stroke-miterlimit="10" points="
		103.5,113.75 8.5,113.75 8.5,27 103.5,27 103.5,92.75 	"/>
	
		<polyline fill="none" stroke="#666766" stroke-width="2" stroke-linecap="round" stroke-linejoin="round" stroke-miterlimit="10" points="
		112,94.25 112,27 133.25,27 133.25,94.25 	"/>
	
		<polyline fill="none" stroke="#666766" stroke-width="2" stroke-linecap="round" stroke-linejoin="round" stroke-miterlimit="10" points="
		142.25,113.75 202.5,113.75 202.5,32.25 202.5,26.25 202.5,8.75 178,8.75 178,26.25 142.25,26.25 142.25,93.5 	"/>
	
		<polyline fill="none" stroke="#666766" stroke-width="2" stroke-linecap="round" stroke-linejoin="round" stroke-miterlimit="10" points="
		295,113.5 295,9.75 433,9.75 433,113.5 317,113.5 	"/>
	
		<polyline fill="none" stroke="#666766" stroke-width="2" stroke-linecap="round" stroke-linejoin="round" stroke-miterlimit="10" points="
		433.5,242.5 433.5,310 304,310 304,242.5 	"/>
	
		<line fill="none" stroke="#666766" stroke-width="2" stroke-linecap="round" stroke-linejoin="round" stroke-miterlimit="10" x1="327" y1="242.5" x2="411" y2="242.5"/>
	
		<polyline fill="none" stroke="#666766" stroke-width="2" stroke-linecap="round" stroke-linejoin="round" stroke-miterlimit="10" points="
		230.5,243.5 295.25,243.5 295.25,309.25 208.25,309.25 208.25,243.5 210.25,243.5 	"/>
	
		<polyline fill="none" stroke="#666766" stroke-width="2" stroke-linecap="round" stroke-linejoin="round" stroke-miterlimit="10" points="
		196.25,243.25 198.5,243.25 198.5,309.25 111.75,309.25 111.75,243.25 173.5,243.25 	"/>
	
		<polyline fill="none" stroke="#666766" stroke-width="2" stroke-linecap="round" stroke-linejoin="round" stroke-miterlimit="10" points="
		103.25,262.5 103.25,309.75 9,309.75 9,262.5 78.75,262.5 	"/>
	
		<polyline fill="none" stroke="#666766" stroke-width="2" stroke-linecap="round" stroke-linejoin="round" stroke-miterlimit="10" points="
		78.25,229.5 78.25,208.75 103.75,208.75 103.75,121.25 9,121.25 9,199.75 8.75,199.75 8.75,255 78.25,255 	"/>
</g>
<circle id="FC0000000856_c" class="map_circle" title="녹음스튜디오" fill="#80efa6" cx="367.745" cy="278.414" r="13.917"/>
<circle id="FC0000000852_c" class="map_circle" title="창작지원1실" fill="#80efa6" cx="250.745" cy="278.414" r="13.917"/>
<circle id="FC0000000853_c" class="map_circle" title="창작지원2실" fill="#80efa6" cx="154.745" cy="278.414" r="13.917"/>
<circle id="FC0000000858_c" class="map_circle" title="서버실" fill="#80efa6" cx="53.745" cy="288.414" r="13.917"/>
<circle id="FC0000000857_c" class="map_circle" title="매체적합테스트실" fill="#80efa6" cx="53.745" cy="181.414" r="13.917"/>
<circle id="FC0000000854_c" class="map_circle" title="창작지원3실" fill="#80efa6" cx="53.745" cy="68.914" r="13.917"/>
<circle id="FC0000000855_c" class="map_circle" title="창작지원4실" fill="#80efa6" cx="172.245" cy="68.914" r="13.917"/>
<circle id="FC0000000859_c" class="map_circle" title="회의실" fill="#80efa6" cx="370.745" cy="68.914" r="13.917"/>
</svg>
