<?xml version="1.0" encoding="utf-8"?>
<!-- Generator: Adobe Illustrator 16.0.3, SVG Export Plug-In . SVG Version: 6.00 Build 0)  -->
<!DOCTYPE svg PUBLIC "-//W3C//DTD SVG 1.1//EN" "http://www.w3.org/Graphics/SVG/1.1/DTD/svg11.dtd">
<svg version="1.1" id="Layer_2" xmlns="http://www.w3.org/2000/svg" xmlns:xlink="http://www.w3.org/1999/xlink" x="0px" y="0px"
	 width="100%" height="100%" viewBox="0 0 443 318.5" enable-background="new 0 0 443 318.5" xml:space="preserve">
<g>
	<rect id="FC0000000856_back" title="녹음스튜디오" x="304" y="242.5" fill="#B1B5B1" width="129.5" height="67.5"/>
	<rect id="FC0000000859_back" title="회의실" x="295" y="10" fill="#B1B5B1" width="138.5" height="103.5"/>
	<rect id="FC0000000852_back" title="창작지원1실" x="208.5" y="242.5" fill="#B1B5B1" width="86.5" height="67.5"/>
	<rect id="FC0000000853_back" title="창작지원2실" x="111.5" y="242.5" fill="#B1B5B1" width="86.5" height="67.5"/>
	<rect id="FC0000000854_back" title="창작지원3실" x="8" y="27.5" fill="#B1B5B1" width="95.5" height="85.002"/>
	<polygon id="FC0000000855_back" title="창작지원4실" fill="#B1B5B1" points="177.5,9 177.5,27.5 141.5,27.5 141.5,112.502 202,112.502 202,94.002 202,27.5 202,9 	"/>
	<polygon id="FC0000000857_back" title="매체적합테스트실" fill="#B1B5B1" points="103.75,121 9,121 9,167.5 9,208.75 9,255.25 78.25,255.25 78.25,208.75 103.75,208.75 	"/>
</g>
<g>
	
		<polyline fill="none" stroke="#666766" stroke-width="7" stroke-linecap="round" stroke-linejoin="round" stroke-miterlimit="10" points="
		439.5,146.002 439.25,21.5 439.25,21.5 439,3.5 173,3.5 173,21.5 3.5,21.5 3.5,315 439.5,315 439.5,202.502 	"/>
	
		<line fill="none" stroke="#666766" stroke-width="4" stroke-linecap="round" stroke-linejoin="round" stroke-miterlimit="10" x1="317.5" y1="118" x2="439.5" y2="118"/>
	
		<line fill="none" stroke="#666766" stroke-width="4" stroke-linecap="round" stroke-linejoin="round" stroke-miterlimit="10" x1="235.5" y1="117.25" x2="291.5" y2="117.25"/>
	
		<line fill="none" stroke="#666766" stroke-width="4" stroke-linecap="round" stroke-linejoin="round" stroke-miterlimit="10" x1="138" y1="117.25" x2="206.25" y2="117.25"/>
	
		<line fill="none" stroke="#666766" stroke-width="4" stroke-linecap="round" stroke-linejoin="round" stroke-miterlimit="10" x1="2" y1="117.25" x2="108" y2="117.25"/>
	
		<line fill="none" stroke="#666766" stroke-width="4" stroke-linecap="round" stroke-linejoin="round" stroke-miterlimit="10" x1="108.25" y1="239.75" x2="108.25" y2="315"/>
	
		<line fill="none" stroke="#666766" stroke-width="4" stroke-linecap="round" stroke-linejoin="round" stroke-miterlimit="10" x1="108.25" y1="118" x2="108.25" y2="213"/>
	
		<line fill="none" stroke="#666766" stroke-width="4" stroke-linecap="round" stroke-linejoin="round" stroke-miterlimit="10" x1="108.25" y1="21" x2="108.25" y2="93.25"/>
	
		<line fill="none" stroke="#666766" stroke-width="4" stroke-linecap="round" stroke-linejoin="round" stroke-miterlimit="10" x1="174" y1="239.25" x2="108.5" y2="239.25"/>
	
		<line fill="none" stroke="#666766" stroke-width="4" stroke-linecap="round" stroke-linejoin="round" stroke-miterlimit="10" x1="209" y1="239.25" x2="197.5" y2="239.25"/>
	
		<line fill="none" stroke="#666766" stroke-width="4" stroke-linecap="round" stroke-linejoin="round" stroke-miterlimit="10" x1="300" y1="239.25" x2="230.5" y2="239.25"/>
	
		<line fill="none" stroke="#666766" stroke-width="4" stroke-linecap="round" stroke-linejoin="round" stroke-miterlimit="10" x1="411" y1="238.5" x2="327" y2="238.5"/>
	
		<line fill="none" stroke="#666766" stroke-width="4" stroke-linecap="round" stroke-linejoin="round" stroke-miterlimit="10" x1="291.5" y1="3.5" x2="291.5" y2="116"/>
	
		<line fill="none" stroke="#666766" stroke-width="4" stroke-linecap="round" stroke-linejoin="round" stroke-miterlimit="10" x1="206.5" y1="2.5" x2="206.5" y2="116.5"/>
	
		<line fill="none" stroke="#666766" stroke-width="4" stroke-linecap="round" stroke-linejoin="round" stroke-miterlimit="10" x1="137.75" y1="113.25" x2="137.75" y2="117.25"/>
	
		<line fill="none" stroke="#666766" stroke-width="4" stroke-linecap="round" stroke-linejoin="round" stroke-miterlimit="10" x1="137.75" y1="22.5" x2="137.75" y2="92.75"/>
	
		<line fill="none" stroke="#666766" stroke-width="4" stroke-linecap="round" stroke-linejoin="round" stroke-miterlimit="10" x1="202.5" y1="239.5" x2="202.5" y2="315"/>
	
		<line fill="none" stroke="#666766" stroke-width="4" stroke-linecap="round" stroke-linejoin="round" stroke-miterlimit="10" x1="300" y1="239" x2="300" y2="315"/>
	
		<line fill="none" stroke="#666766" stroke-width="4" stroke-linecap="round" stroke-linejoin="round" stroke-miterlimit="10" x1="4" y1="258.5" x2="78" y2="258.5"/>
	
		<polyline fill="none" stroke="#666766" stroke-width="4" stroke-linecap="round" stroke-linejoin="round" stroke-miterlimit="10" points="
		108,213 83,213 83,229 	"/>
	
		<polyline fill="none" stroke="#666766" stroke-width="2" stroke-linecap="round" stroke-linejoin="round" stroke-miterlimit="10" points="
		103.5,113.75 8.5,113.75 8.5,27 103.5,27 103.5,92.75 	"/>
	
		<polyline fill="none" stroke="#666766" stroke-width="2" stroke-linecap="round" stroke-linejoin="round" stroke-miterlimit="10" points="
		112,94.25 112,27 133.25,27 133.25,94.25 	"/>
	
		<polyline fill="none" stroke="#666766" stroke-width="2" stroke-linecap="round" stroke-linejoin="round" stroke-miterlimit="10" points="
		142.25,113.75 202.5,113.75 202.5,32.25 202.5,26.25 202.5,8.75 178,8.75 178,26.25 142.25,26.25 142.25,93.5 	"/>
	
		<polyline fill="none" stroke="#666766" stroke-width="2" stroke-linecap="round" stroke-linejoin="round" stroke-miterlimit="10" points="
		295,113.5 295,9.75 433,9.75 433,113.5 317,113.5 	"/>
	
		<polyline fill="none" stroke="#666766" stroke-width="2" stroke-linecap="round" stroke-linejoin="round" stroke-miterlimit="10" points="
		433.5,242.5 433.5,310 304,310 304,242.5 	"/>
	
		<line fill="none" stroke="#666766" stroke-width="2" stroke-linecap="round" stroke-linejoin="round" stroke-miterlimit="10" x1="327" y1="242.5" x2="411" y2="242.5"/>
	
		<polyline fill="none" stroke="#666766" stroke-width="2" stroke-linecap="round" stroke-linejoin="round" stroke-miterlimit="10" points="
		230.5,243.5 295.25,243.5 295.25,309.25 208.25,309.25 208.25,243.5 210.25,243.5 	"/>
	
		<polyline fill="none" stroke="#666766" stroke-width="2" stroke-linecap="round" stroke-linejoin="round" stroke-miterlimit="10" points="
		196.25,243.25 198.5,243.25 198.5,309.25 111.75,309.25 111.75,243.25 173.5,243.25 	"/>
	
		<polyline fill="none" stroke="#666766" stroke-width="2" stroke-linecap="round" stroke-linejoin="round" stroke-miterlimit="10" points="
		103.25,262.5 103.25,309.75 9,309.75 9,262.5 78.75,262.5 	"/>
	
		<polyline fill="none" stroke="#666766" stroke-width="2" stroke-linecap="round" stroke-linejoin="round" stroke-miterlimit="10" points="
		78.25,229.5 78.25,208.75 103.75,208.75 103.75,121.25 9,121.25 9,199.75 8.75,199.75 8.75,255 78.25,255 	"/>
</g>
<g>
	<circle id="EQ0000000321" fill="#93CE9C" cx="343.661" cy="278.329" r="6.667"><title>녹음스튜디오</title></circle>
	<circle id="EQ0000000343" fill="#93CE9C" cx="249.661" cy="294.996" r="6.667"><title>창작지원1실</title></circle>
	<circle id="EQ0000000361" fill="#93CE9C" cx="152.328" cy="294.996" r="6.667"><title>창작지원2실</title></circle>
	
    <circle class="clickable" data="192.168.20.202" fill="#ffef42" cx="19.658" cy="289.996" r="4.667"><title>렌더팜1</title></circle>
	<circle class="clickable" data="192.168.20.207" fill="#ffef42" cx="19.658" cy="301.496" r="4.667"><title>렌더팜6</title></circle>
	<circle class="clickable" data="192.168.20.203" fill="#ffef42" cx="30.658" cy="289.996" r="4.667"><title>렌더팜2</title></circle>
	<circle class="clickable" data="192.168.20.208" fill="#ffef42" cx="30.658" cy="301.496" r="4.667"><title>렌더팜7</title></circle>
	<circle class="clickable" data="192.168.20.204" fill="#ffef42" cx="41.658" cy="289.996" r="4.667"><title>렌더팜3</title></circle>
	<circle class="clickable" data="192.168.20.209" fill="#ffef42" cx="41.658" cy="301.496" r="4.667"><title>렌더팜8</title></circle>
	<circle class="clickable" data="192.168.20.205" fill="#ffef42" cx="52.658" cy="289.996" r="4.667"><title>렌더팜4</title></circle>
	<circle class="clickable" data="192.168.20.210" fill="#ffef42" cx="52.658" cy="301.496" r="4.667"><title>렌더팜9</title></circle>
	<circle class="clickable" data="192.168.20.206" fill="#ffef42" cx="63.658" cy="289.996" r="4.667"><title>렌더팜5</title></circle>
	<circle class="clickable" data="192.168.20.211" fill="#ffef42" cx="63.658" cy="301.496" r="4.667"><title>렌더팜10</title></circle>
	<circle class="clickable" data="192.168.20.100" fill="#ffef42" cx="94.158" cy="301.496" r="4.667"><title>NAS</title></circle>
	
	<circle id="EQ0000000346" fill="#93CE9C" cx="82.857" cy="278.496" r="4.667"><title>Web서버</title></circle>
	<circle id="EQ0000000347" fill="#93CE9C" cx="94.158" cy="278.496" r="4.667"><title>DB서버</title></circle>
	
    <circle id="EQ0000000331" fill="#ffef42" cx="88.328" cy="189.663" r="6.667"><title>매체적합테스트실1</title></circle>
	<circle id="EQ0000000332" fill="#ffef42" cx="88.328" cy="137.662" r="6.667"><title>매체적합테스트실2</title></circle>
	<circle id="EQ0000000365" fill="#93CE9C" cx="55.661" cy="37.662" r="6.667"><title>창작지원3실</title></circle>
	<circle id="EQ0000000366" fill="#93CE9C" cx="188.995" cy="77.662" r="6.667"><title>창작지원4실</title></circle>
</g>
<g>
	<g>
		<rect x="269.414" y="247.617" fill="#FFFFFF" stroke="#9FA1A4" stroke-miterlimit="10" width="22.5" height="22.5"/>
		<text transform="matrix(1 0 0 1 277.5859 262.3882)" fill="#454546" font-family="'MyriadPro-Regular'" font-size="12">2</text>
	</g>
	<g>
		<rect x="406.414" y="247.617" fill="#FFFFFF" stroke="#9FA1A4" stroke-miterlimit="10" width="22.5" height="22.5"/>
		<text transform="matrix(1 0 0 1 414.5859 262.3882)" fill="#454546" font-family="'MyriadPro-Regular'" font-size="12">1</text>
	</g>
	<g>
		<rect x="172.914" y="247.617" fill="#FFFFFF" stroke="#9FA1A4" stroke-miterlimit="10" width="22.5" height="22.5"/>
		<text transform="matrix(1 0 0 1 181.0859 262.3882)" fill="#454546" font-family="'MyriadPro-Regular'" font-size="12">3</text>
	</g>
	<g>
		<rect x="13.414" y="124.617" fill="#FFFFFF" stroke="#9FA1A4" stroke-miterlimit="10" width="22.5" height="22.5"/>
		<text transform="matrix(1 0 0 1 21.5859 139.3882)" fill="#454546" font-family="'MyriadPro-Regular'" font-size="12">5</text>
	</g>
	<g>
		<rect x="13.414" y="31.117" fill="#FFFFFF" stroke="#9FA1A4" stroke-miterlimit="10" width="22.5" height="22.5"/>
		<text transform="matrix(1 0 0 1 21.5859 45.8882)" fill="#454546" font-family="'MyriadPro-Regular'" font-size="12">6</text>
	</g>
	<g>
		<rect x="146.914" y="31.117" fill="#FFFFFF" stroke="#9FA1A4" stroke-miterlimit="10" width="22.5" height="22.5"/>
		<text transform="matrix(1 0 0 1 155.0859 45.8882)" fill="#454546" font-family="'MyriadPro-Regular'" font-size="12">7</text>
	</g>
	<g>
		<rect x="299.414" y="13.617" fill="#FFFFFF" stroke="#9FA1A4" stroke-miterlimit="10" width="22.5" height="22.5"/>
		<text transform="matrix(1 0 0 1 307.5859 28.3882)" fill="#454546" font-family="'MyriadPro-Regular'" font-size="12">8</text>
	</g>
	<g>
		<rect x="12.581" y="265.534" fill="#FFFFFF" stroke="#9FA1A4" stroke-miterlimit="10" width="17.833" height="17.832"/>
		<text transform="matrix(1 0 0 1 18.4194 277.9712)" fill="#454546" font-family="'MyriadPro-Regular'" font-size="12">4</text>
	</g>
</g>
</svg>
